<svg width="33" height="25" viewBox="0 0 33 25" fill="none" xmlns="http://www.w3.org/2000/svg">
<path d="M0 25V17.0635C0 14.903 0.443548 12.7315 1.33064 10.5489C2.21774 8.3664 3.3377 6.3492 4.69052 4.49735C6.04335 2.6455 7.40726 1.14639 8.78226 0L16.3669 3.83598C15.2137 5.75397 14.3155 7.76014 13.6724 9.8545C13.0514 11.9489 12.752 14.3518 12.7742 17.0635V25H0ZM16.6331 25V17.0635C16.6331 14.903 17.0766 12.7315 17.9637 10.5489C18.8508 8.3664 19.9708 6.3492 21.3236 4.49735C22.6764 2.6455 24.0403 1.14639 25.4153 0L33 3.83598C31.8468 5.75397 30.9486 7.76014 30.3054 9.8545C29.6845 11.9489 29.3851 14.3518 29.4073 17.0635V25H16.6331Z" fill="#F5A200"/>
</svg>
